Coordinates
version=1
nRows=13
nColumns=36
inDegrees=yes

Units are S.I. units (second, meters, Newtons, ...)
If the header above contains a line with 'inDegrees', this indicates whether rotational values are in degrees (yes) or radians (no).

endheader
time	pelvis_tilt	pelvis_list	pelvis_rotation	pelvis_tx	pelvis_ty	pelvis_tz	hip_flexion_r	hip_adduction_r	hip_rotation_r	knee_angle_r	knee_angle_r_beta	ankle_angle_r	subtalar_angle_r	mtp_angle_r	hip_flexion_l	hip_adduction_l	hip_rotation_l	knee_angle_l	knee_angle_l_beta	ankle_angle_l	subtalar_angle_l	mtp_angle_l	lumbar_extension	lumbar_bending	lumbar_rotation	arm_flex_r	arm_add_r	arm_rot_r	elbow_flex_r	pro_sup_r	arm_flex_l	arm_add_l	arm_rot_l	elbow_flex_l	pro_sup_l
      0.00000000	      4.00617400	     -2.23967073	      7.74521403	      1.09159608	      0.92063596	      0.11220402	     -7.09357257	     -3.03147227	     -8.52621373	      1.68023960	      0.02932571	      8.09858349	     -1.69198715	     -6.04602103	     -8.42968661	    -10.61616765	     -5.39076178	      0.22116904	      0.00386013	     10.31864712	     -2.61564173	     -6.04602103	     -1.10471174	      4.16007846	     -3.83694061	     38.49041771	      7.15592659	     56.51110481	    109.56612375	     81.18455561	     43.51959848	      7.47132315	     62.86678417	    109.79376173	     83.08207818
      0.01666670	      3.77672293	     -1.72398855	      6.40988674	      1.09920700	      0.92008952	      0.11421670	     -6.56536983	     -3.80658594	     -8.71603417	      1.99284644	      0.03478173	      8.75943036	     -2.75958870	     -6.48148368	     -8.97516865	    -10.10665802	     -8.73756015	      0.23900626	      0.00417145	      9.56615052	     -2.16136344	     -6.48148368	     -0.26404591	      4.12872764	     -2.71872850	     41.19728552	      5.11514032	     65.85442165	    116.95354446	     92.38860808	     43.73543084	      5.39167103	     61.28524926	    114.91612696	     99.57309863
      0.03333330	      4.06714043	     -1.43405791	      6.18810305	      1.09298728	      0.91858782	      0.11259135	     -6.05322073	     -4.33539604	     -8.90407805	      3.21813186	      0.05616700	      9.39837522	     -2.78980418	     -6.72887472	     -9.30402846	     -9.80586376	    -11.37709321	      0.36959535	      0.00645066	      8.05662498	     -2.72843325	     -6.72887472	     -0.58348594	      4.19671756	     -3.42351012	     42.19266053	      6.58017895	     65.73863554	    117.19771579	     95.63299567	     44.87647935	      3.50630349	     62.11743550	    116.81307506	    104.98142381
      0.05000000	      4.54893354	     -1.21864283	      6.57631463	      1.09709400	      0.91909107	      0.11368923	     -6.29133529	     -4.60990317	    -10.12361757	      3.75784127	      0.06558670	      9.85542553	     -2.61086586	     -6.74907437	     -9.57593307	     -9.73077415	    -12.55877725	      0.60632976	      0.01058245	      7.70282153	     -2.89970014	     -6.74907437	     -1.27089663	      4.09779486	     -3.54329896	     43.01963238	      7.15253736	     65.30541534	    116.94379368	     95.81429162	     46.36397954	      3.14815471	     62.92265942	    117.50534906	    105.25614134
      0.06666670	      5.03335111	     -1.01319647	      6.97849866	      1.09507671	      0.92169343	      0.11300603	     -6.60143115	     -4.78007789	    -11.17291666	      4.12502544	      0.07199528	     10.10378037	     -2.34275923	     -7.20205636	     -9.82953102	     -9.71551324	    -13.12335618	      0.86839645	      0.01515638	      7.29162132	     -2.81563637	     -7.20205636	     -2.19527072	      4.11655950	     -3.37336126	     43.75313417	      6.91531655	     64.86882567	    116.23282980	     96.63512869	     47.46520845	      2.99709102	     63.09854905	    117.94752595	    106.70452941
      0.08333330	      5.33160756	     -0.82408960	      7.13408601	      1.09405531	      0.92185940	      0.11282204	     -6.78179315	     -4.95052312	    -11.75996139	      4.23415810	      0.07390000	     10.04767121	     -2.72299991	     -7.35724510	    -10.00324347	     -9.66163956	    -13.33342823	      1.07022180	      0.01867889	      7.23993333	     -2.68135082	     -7.35724510	     -2.93601990	      4.01326468	     -3.05984342	     44.12443648	      6.96338711	     64.84856821	    115.62502021	     95.93133777	     48.42307580	      2.94665781	     63.29249866	    118.03757804	    106.57148799
      0.10000000	      5.48719379	     -0.63527261	      7.36813690	      1.09328230	      0.92186563	      0.11267162	     -6.98582695	     -5.10231751	    -12.28070477	      4.17378654	      0.07284632	      9.77346626	     -3.21728324	     -7.41900877	    -10.00339428	     -9.57751148	    -13.27593777	      1.22959635	      0.02146050	      7.03377444	     -2.81852443	     -7.41900877	     -3.45090150	      3.89454482	     -2.82523051	     44.18875267	      7.09954293	     64.72618568	    115.29277379	     95.15475585	     49.13702457	      3.05841125	     63.49992995	    118.12745201	    106.33502223
      0.11666670	      5.57054240	     -0.49097976	      7.70884402	      1.09297231	      0.92173059	      0.11231146	     -7.23300205	     -5.17692080	    -12.86807635	      3.96084409	      0.06912977	      9.50319914	     -3.74876866	     -7.43968622	     -9.95526680	     -9.54017937	    -13.12987584	      1.30847326	      0.02283717	      6.73542292	     -2.99069738	     -7.43968622	     -3.81506179	      3.79175794	     -2.62776469	     44.27493105	      6.93254862	     64.30188126	    115.05373850	     94.40874533	     49.90783020	      3.16183203	     63.90861044	    118.16207973	    106.12153820
      0.13333330	      5.60896281	     -0.36753960	      8.05426965	      1.09262623	      0.92152170	      0.11203592	     -7.48249902	     -5.22100309	    -13.38016664	      3.70675805	      0.06469513	      9.23802847	     -4.24917152	     -7.46571886	     -9.88237215	     -9.49737280	    -12.86845529	      1.30813635	      0.02283129	      6.56142587	     -3.15161983	     -7.46571886	     -4.09936880	      3.66392095	     -2.59306496	     44.41371764	      6.91476685	     63.64213933	    114.55341173	     93.77381301	     50.43623594	      3.20163218	     63.98272489	    118.08468133	    105.68776465
      0.15000000	      5.67899934	     -0.27833668	      8.47357364	      1.09245568	      0.92130984	      0.11158612	     -7.80972503	     -5.20934624	    -13.93110639	      3.45149824	      0.06024001	      9.06837427	     -4.53158488	     -7.47620037	     -9.89814196	     -9.47744727	    -12.54110898	      1.24199700	      0.02167694	      6.23242362	     -3.29173230	     -7.47620037	     -4.33462300	      3.57823882	     -2.57006483	     44.38101816	      6.82368863	     63.06090338	    114.78750669	     92.07796184	     50.80066035	      3.45291855	     64.34895055	    117.95313853	    103.56828169
      0.16666670	      5.66517932	     -0.23222038	      8.76442055	      1.09220529	      0.92098191	      0.11146752	     -7.99434256	     -5.16202586	    -14.14342991	      3.22570720	      0.05629921	      8.78047402	     -5.13545871	     -7.48929167	     -9.85713751	     -9.46811172	    -12.57392702	      1.17508105	      0.02050903	      6.10193497	     -3.04074741	     -7.48929167	     -4.34334645	      3.58436281	     -2.64337919	     44.33910651	      6.95802417	     62.95549770	    115.05032956	     92.80043598	     50.92638127	      3.55569809	     64.39494353	    117.95118912	    105.40654422
      0.18333330	      5.70470874	     -0.16068314	      9.00783962	      1.09215724	      0.92070166	      0.11115422	     -8.21334393	     -5.13405243	    -14.48420733	      3.02820029	      0.05285207	      8.76485653	     -5.28771506	     -7.49434101	     -9.85909313	     -9.42183550	    -12.39354179	      1.11284860	      0.01942287	      6.10198170	     -3.07534460	     -7.49434101	     -4.40829108	      3.48931189	     -2.62939184	     44.25106089	      7.14381517	     62.73254084	    115.38187800	     92.56196747	     51.13722362	      3.75989074	     64.60542662	    117.87758428	    105.06092906
      0.20000000	      5.71424696	     -0.11721368	      9.31427031	      1.09213390	      0.92048180	      0.11092053	     -8.39807599	     -5.07138461	    -15.01189819	      2.85062389	      0.04975277	      8.79152885	     -5.19375812	     -7.49647158	     -9.78388035	     -9.40478912	    -12.21095346	      1.06453435	      0.01857963	      6.07430195	     -2.97702704	     -7.49647158	     -4.36543418	      3.45923411	     -2.92283151	     44.00055230	      7.69283162	     62.70641404	    114.98665679	     91.93427072	     51.22073609	      3.70287304	     64.67906874	    117.91699639	    103.95144244
